<svg xmlns="http://www.w3.org/2000/svg" version="1.1" height="432" width="592" viewBox="0 0 592 432" class="diagram" text-anchor="middle" font-family="monospace" font-size="13px">
<path d="M 8,96 L 8,400" fill="none" stroke="black"/>
<path d="M 32,112 L 32,384" fill="none" stroke="black"/>
<path d="M 48,144 L 48,192" fill="none" stroke="black"/>
<path d="M 96,200 L 96,304" fill="none" stroke="black"/>
<path d="M 136,144 L 136,192" fill="none" stroke="black"/>
<path d="M 184,272 L 184,320" fill="none" stroke="black"/>
<path d="M 192,16 L 192,64" fill="none" stroke="black"/>
<path d="M 240,72 L 240,264" fill="none" stroke="black"/>
<path d="M 280,16 L 280,64" fill="none" stroke="black"/>
<path d="M 296,272 L 296,320" fill="none" stroke="black"/>
<path d="M 328,112 L 328,128" fill="none" stroke="black"/>
<path d="M 328,208 L 328,384" fill="none" stroke="black"/>
<path d="M 368,16 L 368,64" fill="none" stroke="black"/>
<path d="M 456,288 L 456,320" fill="none" stroke="black"/>
<path d="M 456,352 L 456,384" fill="none" stroke="black"/>
<path d="M 472,176 L 472,184" fill="none" stroke="black"/>
<path d="M 480,16 L 480,64" fill="none" stroke="black"/>
<path d="M 560,288 L 560,320" fill="none" stroke="black"/>
<path d="M 560,352 L 560,384" fill="none" stroke="black"/>
<path d="M 584,96 L 584,400" fill="none" stroke="black"/>
<path d="M 192,16 L 280,16" fill="none" stroke="black"/>
<path d="M 368,16 L 480,16" fill="none" stroke="black"/>
<path d="M 288,48 L 360,48" fill="none" stroke="black"/>
<path d="M 192,64 L 280,64" fill="none" stroke="black"/>
<path d="M 368,64 L 480,64" fill="none" stroke="black"/>
<path d="M 8,96 L 232,96" fill="none" stroke="black"/>
<path d="M 248,96 L 584,96" fill="none" stroke="black"/>
<path d="M 32,112 L 232,112" fill="none" stroke="black"/>
<path d="M 248,112 L 328,112" fill="none" stroke="black"/>
<path d="M 48,144 L 136,144" fill="none" stroke="black"/>
<path d="M 48,192 L 136,192" fill="none" stroke="black"/>
<path d="M 184,272 L 296,272" fill="none" stroke="black"/>
<path d="M 456,288 L 560,288" fill="none" stroke="black"/>
<path d="M 96,304 L 176,304" fill="none" stroke="black"/>
<path d="M 336,304 L 448,304" fill="none" stroke="black"/>
<path d="M 184,320 L 296,320" fill="none" stroke="black"/>
<path d="M 456,320 L 560,320" fill="none" stroke="black"/>
<path d="M 456,352 L 560,352" fill="none" stroke="black"/>
<path d="M 336,368 L 448,368" fill="none" stroke="black"/>
<path d="M 32,384 L 328,384" fill="none" stroke="black"/>
<path d="M 456,384 L 560,384" fill="none" stroke="black"/>
<path d="M 8,400 L 240,400" fill="none" stroke="black"/>
<path d="M 320,400 L 584,400" fill="none" stroke="black"/>
<polygon class="arrowhead" points="344,368 332,362.4 332,373.6 " fill="black" transform="rotate(180,336,368)"/>
<polygon class="arrowhead" points="344,304 332,298.4 332,309.6 " fill="black" transform="rotate(180,336,304)"/>
<polygon class="arrowhead" points="296,48 284,42.4 284,53.6 " fill="black" transform="rotate(180,288,48)"/>
<polygon class="arrowhead" points="184,304 172,298.4 172,309.6 " fill="black" transform="rotate(0,176,304)"/>
<g class="text">
<text x="220" y="36">Lead</text>
<text x="416" y="36">Component</text>
<text x="236" y="52">Verifier</text>
<text x="412" y="52">Verifier</text>
<text x="344" y="148">Evidence-Collection CMW</text>
<text x="92" y="164">Target A</text>
<text x="364" y="164">1: CMW(Evidence(Attester A),</text>
<text x="88" y="180">Environ</text>
<text x="260" y="180">2.</text>
<text x="388" y="180">Evidence(Attester B)</text>
<text x="260" y="196">3:</text>
<text x="392" y="196">Evidence(Attester C))</text>
<text x="128" y="228">Collect</text>
<text x="124" y="244">Claims</text>
<text x="232" y="292">Attesting</text>
<text x="396" y="292">Evidence B</text>
<text x="240" y="308">Environment</text>
<text x="508" y="308">Attester B</text>
<text x="172" y="356">Attester A</text>
<text x="396" y="356">Evidence C</text>
<text x="508" y="372">Attester C</text>
<text x="280" y="404">Chassis A</text>
</g>
</svg>
