<svg xmlns="http://www.w3.org/2000/svg" version="1.1" height="560" width="584" viewBox="0 0 584 560" class="diagram" text-anchor="middle" font-family="monospace" font-size="13px">
<path d="M 8,80 L 8,368" fill="none" stroke="black"/>
<path d="M 24,96 L 24,352" fill="none" stroke="black"/>
<path d="M 40,128 L 40,176" fill="none" stroke="black"/>
<path d="M 88,184 L 88,288" fill="none" stroke="black"/>
<path d="M 128,128 L 128,176" fill="none" stroke="black"/>
<path d="M 176,256 L 176,304" fill="none" stroke="black"/>
<path d="M 176,480 L 176,528" fill="none" stroke="black"/>
<path d="M 184,16 L 184,64" fill="none" stroke="black"/>
<path d="M 232,72 L 232,248" fill="none" stroke="black"/>
<path d="M 240,376 L 240,472" fill="none" stroke="black"/>
<path d="M 272,16 L 272,64" fill="none" stroke="black"/>
<path d="M 288,256 L 288,304" fill="none" stroke="black"/>
<path d="M 304,480 L 304,528" fill="none" stroke="black"/>
<path d="M 320,176 L 320,352" fill="none" stroke="black"/>
<path d="M 424,144 L 424,152" fill="none" stroke="black"/>
<path d="M 456,224 L 456,256" fill="none" stroke="black"/>
<path d="M 456,288 L 456,320" fill="none" stroke="black"/>
<path d="M 560,224 L 560,256" fill="none" stroke="black"/>
<path d="M 560,288 L 560,320" fill="none" stroke="black"/>
<path d="M 576,80 L 576,368" fill="none" stroke="black"/>
<path d="M 184,16 L 272,16" fill="none" stroke="black"/>
<path d="M 184,64 L 272,64" fill="none" stroke="black"/>
<path d="M 8,80 L 224,80" fill="none" stroke="black"/>
<path d="M 240,80 L 576,80" fill="none" stroke="black"/>
<path d="M 24,96 L 224,96" fill="none" stroke="black"/>
<path d="M 240,96 L 320,96" fill="none" stroke="black"/>
<path d="M 40,128 L 128,128" fill="none" stroke="black"/>
<path d="M 40,176 L 128,176" fill="none" stroke="black"/>
<path d="M 456,224 L 560,224" fill="none" stroke="black"/>
<path d="M 328,240 L 448,240" fill="none" stroke="black"/>
<path d="M 176,256 L 288,256" fill="none" stroke="black"/>
<path d="M 456,256 L 560,256" fill="none" stroke="black"/>
<path d="M 88,288 L 168,288" fill="none" stroke="black"/>
<path d="M 456,288 L 560,288" fill="none" stroke="black"/>
<path d="M 176,304 L 288,304" fill="none" stroke="black"/>
<path d="M 328,304 L 448,304" fill="none" stroke="black"/>
<path d="M 456,320 L 560,320" fill="none" stroke="black"/>
<path d="M 24,352 L 320,352" fill="none" stroke="black"/>
<path d="M 8,368 L 256,368" fill="none" stroke="black"/>
<path d="M 336,368 L 576,368" fill="none" stroke="black"/>
<path d="M 176,480 L 304,480" fill="none" stroke="black"/>
<path d="M 176,528 L 304,528" fill="none" stroke="black"/>
<polygon class="arrowhead" points="336,304 324,298.4 324,309.6 " fill="black" transform="rotate(180,328,304)"/>
<polygon class="arrowhead" points="336,240 324,234.4 324,245.6 " fill="black" transform="rotate(180,328,240)"/>
<polygon class="arrowhead" points="248,376 236,370.4 236,381.6 " fill="black" transform="rotate(270,240,376)"/>
<polygon class="arrowhead" points="176,288 164,282.4 164,293.6 " fill="black" transform="rotate(0,168,288)"/>
<g class="text">
<text x="212" y="36">Lead</text>
<text x="228" y="52">Verifier</text>
<text x="344" y="116">Evidence-Collection CMW</text>
<text x="364" y="132">1: CMW(Evidence(Attester A),</text>
<text x="84" y="148">Target A</text>
<text x="260" y="148">2:</text>
<text x="364" y="148">AR(Attester B)</text>
<text x="80" y="164">Environ</text>
<text x="260" y="164">3:</text>
<text x="368" y="164">AR(Attester C))</text>
<text x="120" y="212">Collect</text>
<text x="116" y="228">Claims</text>
<text x="388" y="228">Evidence B</text>
<text x="508" y="244">Attester B</text>
<text x="224" y="276">Attesting</text>
<text x="232" y="292">Environment</text>
<text x="388" y="292">Evidence C</text>
<text x="508" y="308">Attester C</text>
<text x="164" y="340">Attester A</text>
<text x="296" y="372">Chassis A</text>
<text x="292" y="452">Evidence-&gt;</text>
<text x="292" y="468">&lt;- Results</text>
<text x="240" y="500">Component B,C</text>
<text x="232" y="516">Verifier(s)</text>
</g>
</svg>
